<?xml version="1.0" encoding="utf-8"?>
<!-- Generator: Adobe Illustrator 27.5.0, SVG Export Plug-In . SVG Version: 6.00 Build 0)  -->
<svg version="1.1" xmlns="http://www.w3.org/2000/svg" xmlns:xlink="http://www.w3.org/1999/xlink" x="0px" y="0px"
	 viewBox="0 0 500 500" style="enable-background:new 0 0 500 500;" xml:space="preserve">
<g id="Floor">
	<ellipse id="Floor_7_" style="fill:#F0F0F0;" cx="248.2" cy="348.688" rx="234.229" ry="135.233"/>
</g>
<g id="Shadow_1_">
	<path id="Shadow_23_" style="fill:#E0E0E0;" d="M264.094,402.702h-8.872c-1.687,0-3.08-1.335-3.133-3.021
		c-0.297-9.481-1.16-18.033-2.604-25.755c-0.49-2.62,2.347-4.597,4.655-3.264l92.918,53.647c2.091,1.207,2.091,4.224,0,5.432l0,0
		c-2.735,1.579-1.684,5.754,1.473,5.85l57.914,1.759c1.881,0.057,3.389-1.545,3.218-3.419l-3.048-33.436
		c-0.208-2.279-2.709-3.576-4.691-2.431l-5.218,3.012c-0.97,0.56-2.165,0.56-3.136,0l-86.671-50.04
		c-2.863-1.653-1.553-6.029,1.748-5.846c13.368,0.743,28.194,1.16,44.648,1.258c1.726,0.01,3.125,1.409,3.125,3.135v1.29
		c0,2.353,2.494,3.867,4.582,2.783l42.667-22.17c2.253-1.171,2.253-4.394,0-5.565l-42.667-22.171
		c-2.087-1.085-4.582,0.43-4.582,2.783v1.226c0,1.742-1.423,3.155-3.165,3.136c-90.535-0.953-120.103-18.483-143.991-32.645
		c-2.096-1.242-4.155-2.463-6.213-3.651l-73.622-42.506c-16.726,5.688-32.493,12.677-46.856,20.97
		c-10.362,5.982-19.537,12.389-27.552,19.119l80.767,46.63c2.057,1.188,4.171,2.377,6.323,3.586
		c24.622,13.844,52.361,29.437,55.138,76.975c0.105,1.802-1.33,3.328-3.135,3.328h-8.526c-3.131,0-4.329,4.085-1.693,5.775
		l39.252,25.179c1.032,0.662,2.354,0.662,3.386,0l39.252-25.179C268.423,406.787,267.225,402.702,264.094,402.702z"/>
</g>
<g id="Clouds">
	<g id="Clouds_1_">
		<g id="XMLID_591_">
			<path id="XMLID_593_" style="fill:#E6E6E6;" d="M420.874,108.006l7.932,4.58c-0.039-0.354-0.067-0.706-0.067-1.05v-2.298
				c0-4.09,2.871-5.747,6.413-3.702c1.435,0.828,2.754,2.14,3.822,3.675c0.58-5.142,4.615-7.058,9.515-4.229
				c5.298,3.059,9.594,10.499,9.594,16.617v3.438c0,1.585-0.293,2.919-0.812,3.983l6.589,3.804c1.965,1.134,3.557,3.893,3.557,6.161
				c0,2.269-1.592,3.188-3.557,2.054l-42.986-24.818c-1.965-1.134-3.557-3.893-3.557-6.161
				C417.316,107.791,418.909,106.871,420.874,108.006z"/>
		</g>
		<g id="XMLID_589_">
			<path id="XMLID_590_" style="fill:#E6E6E6;" d="M427.608,73.679l-4.376-3.369V60.67c0-7.642-6.095-16.512-12.713-20.333l0,0
				c-6.618-3.821-11.983-0.723-11.983,6.918v1.4c-1.502-2.333-3.44-4.34-5.561-5.564l0,0c-4.762-2.75-8.623-0.521-8.623,4.978v0.636
				l-6.101-3.522c-3.136-1.811-5.678-0.343-5.678,3.278c0,3.621,2.542,8.025,5.678,9.835l49.356,28.496
				c3.136,1.811,5.679,0.343,5.679-3.278C433.287,79.893,430.744,75.49,427.608,73.679z"/>
		</g>
	</g>
</g>
<g id="Arrows">
	<g id="Way">
		<path style="fill:#27DEBF;" d="M404.871,426.124v6.29l-50.85-1.55v-6.29l1.61-0.93l-113.04-65.26
			c3.32,11.63,4.96,25.66,4.96,42.45h11.35v6.3l-34.06,21.84l-34.06-21.84v-6.3h11.21c-2.45-55.99-37.79-71.23-63.87-86.29
			c-7.12-4.1-45.61-26.32-79.08-45.65l-0.01-6.31c7.02-5.54,14.87-10.84,23.54-15.85c12.76-7.36,26.62-13.7,41.28-19.01
			c32.25,18.63,70.23,40.55,76.87,44.39c27.04,15.61,54.39,36.96,160.36,36.96v-6.56l37.84,19.67v6.29l-37.84,19.66v-6.55
			c-29.08,0-53.39-0.95-73.53-2.86l107.59,62.12l7.05-4.08L404.871,426.124z"/>
		<path style="opacity:0.15;" d="M404.871,426.124v6.29l-50.85-1.55v-6.29l1.61-0.93l-113.04-65.26
			c3.32,11.63,4.96,25.66,4.96,42.45h11.35v6.3l-34.06,21.84l-34.06-21.84v-6.3h11.21c-2.45-55.99-37.79-71.23-63.87-86.29
			c-6.8-3.92-46.38-26.77-79.08-45.65l-0.01-6.31c7.02-5.54,14.87-10.84,23.54-15.85c12.76-7.36,26.62-13.7,41.28-19.01
			c0.09,0.05,0.17,0.1,0.26,0.15c32.2,18.59,69.99,40.41,76.61,44.24c27.04,15.61,54.39,36.96,160.36,36.96v-6.56l37.84,19.67v6.29
			l-37.84,19.66v-6.55c-29.08,0-53.39-0.95-73.53-2.86l107.59,62.12l7.05-4.08L404.871,426.124z"/>
		<path style="opacity:0.15;" d="M202.139,400.836h-0.14c-2.46-55.992-37.797-71.224-63.883-86.289
			c-6.794-3.921-79.076-45.652-79.076-45.652l-0.013-6.305c0,0,72.295,41.742,79.089,45.668
			C165.153,323.864,202.139,339.665,202.139,400.836z"/>
		<path style="opacity:0.15;" d="M361.077,335.295v6.289c-29.077,0-53.383-0.95-73.525-2.86l-13.518-7.798
			c11.245,1.463,24.036,2.553,38.496,3.279C326.988,334.932,343.125,335.295,361.077,335.295z"/>
		<path style="fill:#27DEBF;" d="M354.021,424.574l7.06-4.07l-121.1-69.92c5.07,12.99,7.57,29.52,7.57,50.25h11.35l-34.06,21.85
			l-34.06-21.85h11.35c0-61.17-36.98-76.97-64.01-92.58c-6.8-3.92-46.35-26.76-79.05-45.64c-0.01-0.01-0.03-0.02-0.04-0.03
			c7.02-5.54,14.87-10.84,23.54-15.85c12.76-7.36,26.62-13.7,41.28-19.01c0.09,0.05,0.17,0.1,0.26,0.15
			c32.2,18.59,69.99,40.41,76.61,44.24c27.04,15.61,54.39,36.96,160.36,36.96v-6.56l37.84,19.67l-37.84,19.66v-6.55
			c-17.96,0-34.09-0.36-48.55-1.09c-14.46-0.72-27.25-1.81-38.49-3.28l121.1,69.92l7.05-4.08l2.68,29.36L354.021,424.574z"/>
		<path style="opacity:0.15;" d="M361.079,420.503l-5.448,3.145l-113.037-65.262c-0.846-2.962-1.718-5.508-2.615-7.8
			L361.079,420.503z"/>
		<polygon style="opacity:0.15;" points="224.842,422.687 224.842,428.978 190.783,407.129 190.783,400.839 		"/>
	</g>
</g>
<g id="Sign">
	<g id="Signal">
		<path style="fill:#37474F;" d="M307.636,87.445c-0.017-0.508-0.356-1.014-1.028-1.402c-1.379-0.796-3.614-0.796-4.993,0
			c-0.672,0.388-1.01,0.894-1.028,1.402h-0.007v255.714c0,1.104,1.579,1.999,3.527,1.999c1.948,0,3.527-0.895,3.527-1.999h0.006
			V87.445H307.636z"/>
		<ellipse style="fill:#455A64;" cx="304.109" cy="87.445" rx="3.527" ry="1.999"/>
		<g>
			<polygon style="fill:#27DEBF;" points="344.008,132.738 337.083,120.745 291.041,94.184 287.557,96.191 287.557,112.183 
				333.599,138.743 337.148,136.784 			"/>
			<g id="XMLID_429_">
				<polygon style="fill:#27DEBF;" points="287.557,96.191 333.599,122.752 340.523,134.746 333.599,138.743 287.557,112.183 				
					"/>
			</g>
			<g id="XMLID_380_" style="opacity:0.3;">
				<polygon points="287.557,96.191 333.599,122.752 340.544,134.781 333.599,138.743 287.557,112.183 				"/>
			</g>
			<polygon style="opacity:0.1;" points="337.083,120.745 333.599,122.752 287.557,96.191 291.041,94.184 			"/>
			<polygon style="opacity:0.2;" points="333.599,122.752 337.083,120.745 344.008,132.738 340.544,134.781 			"/>
		</g>
		<g>
			<polygon style="fill:#27DEBF;" points="344.008,188.757 337.083,176.763 291.041,150.202 287.557,152.209 287.557,168.201 
				333.599,194.762 337.148,192.802 			"/>
			<g id="XMLID_443_">
				<polygon style="fill:#27DEBF;" points="287.557,152.209 333.599,178.77 340.523,190.764 333.599,194.762 287.557,168.201 				
					"/>
			</g>
			<g id="XMLID_441_" style="opacity:0.3;">
				<polygon points="287.557,152.209 333.599,178.77 340.544,190.799 333.599,194.762 287.557,168.201 				"/>
			</g>
			<polygon style="opacity:0.1;" points="337.083,176.763 333.599,178.77 287.557,152.209 291.041,150.202 			"/>
			<polygon style="opacity:0.2;" points="333.599,178.77 337.083,176.763 344.008,188.757 340.544,190.799 			"/>
		</g>
		<g>
			<g id="XMLID_301_">
				<polygon style="fill:#27DEBF;" points="317.236,141.411 271.195,114.807 264.27,118.805 271.195,130.799 317.236,157.403 				
					"/>
			</g>
			<g id="XMLID_292_">
				<polygon style="fill:#27DEBF;" points="271.195,114.807 274.579,112.775 320.688,139.418 317.236,141.411 				"/>
			</g>
			<g id="XMLID_282_" style="opacity:0.4;">
				<polygon style="fill:#FFFFFF;" points="271.195,114.807 274.579,112.775 320.688,139.418 317.236,141.411 				"/>
			</g>
			<polygon style="fill:#27DEBF;" points="320.688,155.41 317.236,157.403 317.236,141.411 320.688,139.418 			"/>
			<polygon style="opacity:0.1;" points="320.688,155.41 317.236,157.403 317.236,141.411 320.688,139.418 			"/>
		</g>
	</g>
</g>
<g id="Character">
	<ellipse id="Shadow_11_" style="opacity:0.1;" cx="134.139" cy="270.786" rx="39.422" ry="22.76"/>
	<g id="Character_4_">
		<g id="XMLID_575_">
			<g>
				<path style="fill:#263238;" d="M166.317,266.092c0.201,0.148,0.32,1.843-0.253,2.619c-0.395,0.534-4.044,3.183-8.545,2.631
					c-4.501-0.551-6.699-1.722-9.271-3.239c-2.632-1.552-4.449-1.777-7.127-1.768c-2.593,0.008-4.511-0.497-4.732-1.17
					c-0.389-1.181-0.417-1.938,0.151-1.921L166.317,266.092z"/>
				<path id="XMLID_582_" style="fill:#FFA8A7;" d="M138.434,255.033c2.685,1.929,5.771,2.21,8.927,0.626l0.54-16.952H136.73
					L138.434,255.033z"/>
				<path style="fill:#37474F;" d="M164.012,262.71c-4.447-1.663-8.77-3.605-11.508-5.531c-0.767-0.539-1.358-0.994-1.849-1.42
					c-1.131-1.136-1.822-3.61-2.311-3.893c-0.47-0.272-1.317,0.62-1.704,0.834c-0.816,0.452-1.704,0.751-2.63,0.868
					c-2.725,0.347-2.834-0.199-2.92,0.687c-0.021,0.216-0.018,0.57,0.015,0.99c-1.452-0.185-2.608-0.609-2.691-1.154l-0.24-1.743
					c-1.443-0.076-1.443,2.502-1.808,5.411c-0.295,2.354-0.793,4.071-0.085,5.768c2.247,1.819,6.067,1.215,8.267,1.494
					c3.112,0.395,4.643,2.63,8.999,3.957c7.021,2.139,11.294-0.79,12.548-2.045C166.895,265.366,166.435,263.616,164.012,262.71z"/>
			</g>
			<g>
				<path style="fill:#263238;" d="M124.119,281.135c-0.121,1.059-0.277,4.032-5.67,4.753c-5.392,0.721-8.782-1.075-10.209-3.674
					c-1.427-2.598-1.09-4.711-1.311-7.113c-0.221-2.402-2.201-3.688-2.767-4.927c-0.833-1.825,0.405-4.656,0.405-4.656
					L124.119,281.135z"/>
				<path id="XMLID_588_" style="fill:#FFA8A7;" d="M105.838,261.353c0.657,4.915,10.188,4.554,9.427,0.627l1.744-11.926
					l-10.789,0.294L105.838,261.353z"/>
				<path style="fill:#37474F;" d="M123.738,278.682c-0.474-0.887-1.859-2.167-2.468-2.967c-3.181-4.182-5.177-9.041-5.552-14.318
					c-0.021-0.29-0.055-0.851-0.342-1.025c-0.304-0.184-0.582,0.067-0.891,0.201c-0.006-0.005-0.01-0.01-0.016-0.014
					c0,0-0.002,0.015-0.004,0.023c-0.387,0.165-0.921,0.35-1.671,0.431c-1.91,0.206-4.021-0.26-4.498-0.196
					c-0.371,0.05-0.489,1.197-0.464,2.439c-0.678-0.432-0.896-1.284-1.505-1.783c-0.328-0.269-0.474-0.278-0.465-0.72
					c0.006-0.288,0.025-0.546,0.029-0.834c-0.489-0.146-0.908,1.732-1.316,3.165c-0.473,1.658-1.061,3.53-0.413,5.219
					c0.361,0.94,0.96,1.765,1.51,2.609c0.947,1.454,1.779,3.047,1.939,4.776c0.07,0.757,0.009,1.525,0.114,2.278
					c0.366,2.624,2.157,4.693,4.683,5.492c3.283,1.039,8.219,0.896,11.123-1.392C124.55,281.264,124.212,279.57,123.738,278.682z"/>
			</g>
			<path id="XMLID_577_" style="fill:#37474F;" d="M111.102,150.723c-2.145,19.678-2.487,54.663-2.487,54.663
				s-3.24,9.167-3.236,15.981c0.009,14.344,0.373,34.002,0.373,34.002s5.336,2.144,10.668,0.422c0,0,5.461-32.043,7.895-43.583
				c2.124-10.071,5.551-33.045,5.551-33.045l4.703,28.148c0,0-1.669,7.951-1.341,15.826c0.226,5.421,4.242,26.238,4.242,26.238
				c1.765,1.669,8.167,0.279,10.431-1.163c0,0,1.584-35.092,2.059-40.786c0.625-7.491,1.784-61.238,1.784-61.238L111.102,150.723z"
				/>
			<path style="fill:#263238;" d="M129.865,179.163l2.626-12.104c0,0,5.869-1.339,10.06-4.701c0,0-1.537,3.862-7.965,6.817
				l-2.681,11.339l2.307,24.872L129.865,179.163z"/>
			<g>
				<path style="fill:#FFA8A7;" d="M226.328,96.968c-0.569-1.718-3.704-0.24-6.986,1.35c-3.019,1.462-8.859,4.266-9.282,3.661
					c-0.424-0.605-0.085-3.114-0.812-4.761c-0.71-1.608-2.672-2.146-2.659-0.686c0.007,0.837-0.511,3.626-0.68,4.904
					c-0.171,1.277-0.49,3.002-1.751,3.765c-1.261,0.763-25.817,4.553-25.817,4.553s-19.103-11.334-23.01-13.918
					c-3.906-2.584-7.007-5.064-12.799-4.773c-7.606,2.724-5.04,9.725-1.776,14.207c1.788,2.456,2.454,2.396,9.085,5.2
					c8.025,3.393,20.641,10.634,27.448,11.647c7.651-0.778,27.814-6.415,29.785-6.737c2.369-0.387,3.867,0.075,5.771-0.254
					c2.29-0.395,4.257-0.625,6.328-1.858c0.589-0.351,1.171-0.846,1.279-1.522c0.055-0.345-0.022-0.7,0.028-1.045
					c0.078-0.536,0.443-1.142,0.439-1.684c-0.006-0.749-0.835-1.457-0.794-2.204c0.018-0.328,0.508-1.216,0.411-1.53
					c-0.205-0.665-0.513-0.843-0.792-1.346c-0.151-0.272-0.601-0.756-0.294-1.059c0.372-0.368,1.385-0.773,3.59-2.296
					C225.248,99.056,226.717,98.142,226.328,96.968z"/>
				<path style="fill:#E0E0E0;" d="M142.221,90.601c3.399,0.003,5.51-0.538,14.943,5.406c9.434,5.944,21.258,13.474,21.258,13.474
					l12.397-1.726c0,0-1.62,4.618,1.625,11.281c0,0-11.531,3.126-14.236,3.608c-2.705,0.482-2.375,0.284-6.564-1.299
					c-4.189-1.583-25.497-11.545-25.497-11.545L142.221,90.601z"/>
				<path style="fill:#F28F8F;" d="M215.904,103.842c-1.827,1.188-4.136,1.988-4.249,3.244c-0.086,0.96,0.774,1.863,1.916,1.772
					c0,0-0.774,0.65-0.546,1.609c0.228,0.959,1.188,1.142,1.188,1.142c-0.343,0.339-0.389,1.673,0.738,2.262
					c-0.688,0.033-2.01-0.389-1.578-1.686c0,0-1.673-0.988-0.988-2.45c0,0-0.685,1.69-3.426,2.102c0,0,2.138-0.994,2.833-2.833
					c0,0-1.188-1.017-0.777-2.427C211.426,105.167,215.904,103.842,215.904,103.842z"/>
			</g>
		</g>
		<g>
			<path id="XMLID_573_" style="fill:#F0F0F0;" d="M128.095,90.957c-5.497,0.835-11.784,1.271-15.64,1.798
				c-4.208,0.575-5.712,4.013-5.712,11.221c0.001,10.6,5.423,28.282,5.423,28.282l-1.064,18.465
				c4.932,5.274,28.145,7.189,40.744-0.541c0,0,0.339-35.956,0-42.018c-0.596-10.668-6.762-17.489-10.696-17.79
				C141.15,90.373,137.547,89.522,128.095,90.957z"/>
		</g>
		<g id="XMLID_303_">
			<g id="XMLID_527_">
				<path style="fill:#263238;" d="M122.777,58.005c0,0-3.014,0.42-4.119,2.692c-0.961,1.976-0.613,6.745,0.668,11.943
					c1.281,5.198,2.488,8.33,3.241,9.768c0.753,1.438,2.301,1.843,2.301,1.843l-0.151-6.168l-0.223-4.298
					c0,0,2.759-3.767,3.062-6.855c0.39-3.974-0.446-5.6-0.446-5.6L122.777,58.005z"/>
				<path id="XMLID_569_" style="fill:#263238;" d="M122.07,58.76l-4.249-1.944c0.603-1.265,2.043-1.856,3.216-1.319
					C122.211,56.035,122.673,57.495,122.07,58.76z"/>
				<path id="XMLID_567_" style="fill:#263238;" d="M127.644,63.973c0.021,6.361,5.194,11.501,11.555,11.48
					s11.501-5.194,11.48-11.555c-0.021-6.361-5.194-11.501-11.555-11.48C132.763,52.439,127.623,57.612,127.644,63.973z"/>
				<path id="XMLID_565_" style="fill:#FFA8A7;" d="M124.657,73.099c-1.036,0.899-1.88-1.427-2.752-2.334
					c-0.872-0.907-3.714-2.141-5.12,0.847c-1.433,3.045,1.302,7.181,3.426,8.166c3.113,1.443,4.507-1.695,4.507-1.695l0.331,12.973
					c3.278,5.905,9.727,5.785,10.755,8.481c0.609-2.393,4.037-5.382,1.779-7.974l-0.025-4.227c0,0,3.491,0.518,5.191,0.25
					c2.83-0.447,4.31-2.582,5.159-5.65c1.364-4.928,1.912-13.209,0.017-22.777c-3.17-2.452-14.164-2.046-20.816,2.171
					C127.597,69.816,125.693,72.2,124.657,73.099z"/>
				<path style="fill:#263238;" d="M149.507,52.384c-0.087-0.164-0.23-0.314-0.412-0.318c-0.143-0.003-0.271,0.085-0.387,0.169
					c-0.418,0.302-1.344,1.08-2.521,1.698c0.235-1.13,0.247-2.305,0.044-3.44c-0.125-0.698-0.323-2.313-1.187-2.486
					c-0.514-0.103-0.962,0.327-1.345,0.685c-3.461,3.239-7.979,1.741-12.15,1.873c-3.487,0.111-7.694,1.53-9.269,4.921
					c-0.72,1.551-0.844,3.186,0.58,4.258c1.215,0.915,2.773,1.329,4.251,1.586c6.947,1.209,16.903,4.066,22.038-2.41
					c0.756-0.953,1.085-2.033,1.076-3.397c-0.008-1.256-0.27-2.182-0.697-3.098C149.521,52.411,149.514,52.397,149.507,52.384z"/>
				<path id="XMLID_548_" style="fill:#F28F8F;" d="M137.558,87.336c0,0-6.325-1.253-8.539-2.42
					c-1.482-0.782-2.704-2.14-3.065-3.013c0,0,0.42,1.874,1.747,3.56c1.623,2.061,9.862,3.556,9.862,3.556L137.558,87.336z"/>
			</g>
			<g id="XMLID_304_">
				<path id="XMLID_515_" style="fill:#263238;" d="M136.073,71.182c0.002,0.727-0.563,1.316-1.262,1.317
					c-0.7,0-1.269-0.589-1.271-1.315c-0.002-0.727,0.563-1.316,1.262-1.317C135.502,69.866,136.071,70.455,136.073,71.182z"/>
				<path id="XMLID_485_" style="fill:#263238;" d="M135.587,66.457l-2.824,1.268c-0.334-0.809,0.027-1.748,0.807-2.098
					C134.35,65.276,135.253,65.648,135.587,66.457z"/>
				<path id="XMLID_451_" style="fill:#B16668;" d="M136.539,79.633l4.044,1.503c-0.396,1.159-1.622,1.762-2.739,1.347
					C136.727,82.068,136.143,80.792,136.539,79.633z"/>
				<path style="fill:#F28F8F;" d="M137.844,82.483c0.373,0.138,0.757,0.154,1.119,0.083c-0.046-1.044-0.9-1.877-1.955-1.877
					c-0.192,0-0.373,0.036-0.548,0.088C136.594,81.535,137.094,82.204,137.844,82.483z"/>
				<path id="XMLID_450_" style="fill:#263238;" d="M147.626,67.267l-2.925-1.081c0.27-0.826,1.145-1.253,1.952-0.954
					C147.46,65.531,147.896,66.442,147.626,67.267z"/>
				<path id="XMLID_448_" style="fill:#263238;" d="M146.529,70.76c0.002,0.727-0.563,1.316-1.263,1.316
					c-0.699,0-1.268-0.588-1.271-1.315c-0.002-0.727,0.563-1.316,1.262-1.317C145.958,69.443,146.527,70.033,146.529,70.76z"/>
				<path id="XMLID_307_" style="fill:#F28F8F;" d="M140.261,70.449l0.418,7.227l3.973-1.369l-3.961-5.938
					C140.551,70.361,140.408,70.389,140.261,70.449z"/>
			</g>
		</g>
		<g>
			<path style="fill:#E0E0E0;" d="M124.955,87.421c-0.801,0.061-1.16,0.181-1.813,1.487c-0.745,1.489-1.387,2.848-1.387,2.848
				s0,3.014,2.715,5.769c2.687,2.727,5.324,4.117,5.324,4.117s1.438-1.939,2.367-2.691c1.872-1.514,3.213-0.108,3.213-0.108
				c-0.229-0.539-0.891-1.671-1.443-2.254c-0.489-0.517-2.479-1.122-5.199-2.833c-2.719-1.711-3.737-4.737-3.737-4.737
				L124.955,87.421z"/>
			<path style="fill:#E0E0E0;" d="M136.073,98.806c0-1.465,0.908-2.555,1.153-3.029c0.704-1.361,0.328-2.429,0.337-3.576
				c0.01-1.148-0.005-3.72-0.005-3.72c0.926,0.119,1.607,0.277,2.184,1.715c0.577,1.438,1.787,3.199,1.787,6.432
				c0,2.905-0.27,3.437-0.27,3.437s-1.229-1.156-2.759-2.069C137.957,97.673,136.74,97.401,136.073,98.806z"/>
		</g>
		<g>
			<g>
				<path style="fill:#FFA8A7;" d="M112.455,92.755c-5.601,0-9.431,3.753-13.199,9.996c-2.916,4.831-13.812,23.301-15.982,28.505
					c-1.978,4.743-2.123,6.702,1.373,10.048c2.794,2.674,19.545,16.965,22.542,19.765c1.913,1.787,4.289,3.402,8.122,3.639
					c4.571,0.283,6.746-1.394,7.526-2.405c4.677-6.063-4.232-7.183-7.454-9.069c-2.564-1.502-4.229-3.425-4.229-3.425l0.143-2.474
					c0,0-3.521,0.095-4.615-0.754c-1.094-0.85-10.068-11.924-10.068-11.924l14.798-21.264
					C114.416,109.85,116.385,97.7,112.455,92.755z"/>
			</g>
			<path style="fill:#E0E0E0;" d="M113.404,92.755c-4.488-0.674-8.739,0.419-13.232,7.519c-4.428,6.996-15.873,27.332-17.186,30.507
				c-1.313,3.175-3.174,6.496,0.547,9.936c3.721,3.44,7.489,6.666,7.489,6.666c0.939-2.785,5.088-7.605,8.513-9.15l-2.162-3.33
				c0,0,12.968-19.329,15.375-22.721C115.154,108.791,116.993,101.001,113.404,92.755z"/>
		</g>
	</g>
</g>
<g id="Plants">
	<g id="Plants_13_">
		<g id="XMLID_748_">
			<path id="XMLID_752_" style="fill:#27DEBF;" d="M66.424,287.924l8.451-4.879c0,0,2.07-18.1,0.693-32.117
				c-1.935-19.697-14.656-43.398-29.832-37.832c-15.175,5.566,6.958,25.626,11.885,42.332
				C62.548,272.135,66.424,287.924,66.424,287.924z"/>
			<path id="XMLID_751_" style="opacity:0.15;" d="M66.424,287.924l8.451-4.879c0,0,2.07-18.1,0.693-32.117
				c-1.935-19.697-14.656-43.398-29.832-37.832c-15.175,5.566,6.958,25.626,11.885,42.332
				C62.548,272.135,66.424,287.924,66.424,287.924z"/>
			<path id="XMLID_749_" style="fill:#FFFFFF;" d="M70.869,285.869c-0.006,0-0.011,0-0.018,0c-0.282-0.01-0.504-0.246-0.494-0.529
				c1.485-43.767-20.303-65.782-20.522-65.999c-0.201-0.199-0.204-0.523-0.006-0.723c0.201-0.201,0.525-0.204,0.724-0.006
				c0.224,0.221,22.326,22.553,20.828,66.763C71.371,285.652,71.144,285.869,70.869,285.869z"/>
		</g>
		<g id="XMLID_622_">
			<path id="XMLID_625_" style="fill:#27DEBF;" d="M61.11,290.966l6.014-3.472c0,0,1.023-12.42-5.067-27.509
				c-5.301-13.135-18.455-24.032-25.07-21.742c-6.615,2.29-6.451,6.981-3.226,11.902C36.987,255.066,56.61,266.796,61.11,290.966z"
				/>
			<path id="XMLID_624_" style="fill:#FFFFFF;" d="M64.282,289.647H64.28c-0.282-0.002-0.511-0.231-0.509-0.514
				c0.119-27.672-25.864-46.375-26.127-46.561c-0.23-0.163-0.285-0.482-0.122-0.713c0.162-0.23,0.48-0.287,0.713-0.122
				c0.266,0.189,26.68,19.202,26.559,47.401C64.792,289.419,64.564,289.647,64.282,289.647z"/>
		</g>
	</g>
	<g id="Plants_12_">
		<g id="XMLID_613_">
			<g id="XMLID_619_">
				<path id="XMLID_621_" style="fill:#27DEBF;" d="M429.105,283.617l-7.293-4.214c0,0-4.341-18.035-2.611-34.263
					c2.432-22.816,17.45-31.401,23.161-29.433c5.711,1.968,7.365,8.607-2.085,22.196
					C434.703,245.919,427.854,262.619,429.105,283.617z"/>
			</g>
			<g id="XMLID_616_" style="opacity:0.15;">
				<path id="XMLID_617_" d="M429.105,283.617l-7.293-4.214c0,0-4.341-18.035-2.611-34.263c2.432-22.816,17.45-31.401,23.161-29.433
					c5.711,1.968,7.365,8.607-2.085,22.196C434.703,245.919,427.854,262.619,429.105,283.617z"/>
			</g>
			<g id="XMLID_614_">
				<path id="XMLID_615_" style="fill:#FFFFFF;" d="M426.083,274.757c0.024-0.001,0.046-0.004,0.07-0.009
					c0.274-0.052,0.455-0.317,0.403-0.591c-3.997-21.044,3.354-44.692,12.457-54.532c0.189-0.204,0.177-0.525-0.028-0.715
					c-0.205-0.188-0.525-0.177-0.715,0.028c-9.269,10.02-16.764,34.053-12.708,55.407
					C425.609,274.596,425.835,274.769,426.083,274.757z"/>
			</g>
		</g>
		<g id="XMLID_594_">
			<g id="XMLID_611_">
				<path id="XMLID_612_" style="fill:#27DEBF;" d="M448.209,294.649c1.152,0.586,4.216-2.036,5.07-2.674
					c1.462-1.092,2.616-2.591,3.348-4.258c0.852-1.94,0.989-3.98,0.586-6.059c-0.209-1.078-0.566-2.121-0.922-3.159
					c-0.35-1.02-0.699-2.039-1.049-3.059c-0.345-1.006-0.695-2.047-0.613-3.108c0.164-2.137,1.974-3.719,3.622-5.088
					c1.823-1.514,3.701-3.486,3.561-6.041c-0.108-1.971-1.221-3.751-2.521-5.238s-2.819-2.78-4.006-4.358
					c-0.854-1.136-1.544-2.486-1.487-3.906c0.036-0.882,0.358-1.728,0.74-2.525c0.819-1.71,1.932-3.294,2.465-5.113
					c0.532-1.819,0.332-4.038-1.128-5.247c-1.198-0.992-2.908-1.053-4.453-0.872c-1.43,0.167-2.798,0.885-4.017,1.646
					c-3.944,2.461-6.017,7.383-10.235,9.336c-1.627,0.753-3.439,0.992-5.147,1.537c-1.708,0.545-3.428,1.518-4.149,3.16
					c-1.421,3.236,1.708,6.979,0.766,10.386c-0.833,3.015-3.658,4.295-5.141,7.049c-0.649,1.205-0.744,2.564-0.561,3.92
					c0.309,2.295,0.732,3.97,1.968,6.477c1.021,2.072,3.896,5.989,3.896,5.989S448.032,294.559,448.209,294.649z"/>
			</g>
			<g id="XMLID_608_">
				<path id="XMLID_609_" style="fill:#FFFFFF;" d="M437.046,288.831c0.007,0,0.014-0.001,0.014-0.001
					c0.286-0.026,0.49-0.273,0.465-0.551c-1.846-20.016,6.488-42.637,13.036-49.417c0.194-0.201,0.189-0.521-0.012-0.716
					c-0.202-0.194-0.521-0.187-0.716,0.012c-6.68,6.916-15.188,29.915-13.316,50.213
					C436.542,288.644,436.776,288.845,437.046,288.831z"/>
			</g>
			<g id="XMLID_595_">
				<path id="XMLID_607_" style="fill:#FFFFFF;" d="M439.034,264.151c0.049-0.003,0.099-0.012,0.148-0.03
					c6.344-2.317,14.358-3.074,14.438-3.081c0.279-0.026,0.483-0.273,0.458-0.55c-0.026-0.278-0.248-0.487-0.55-0.458
					c-0.082,0.008-8.223,0.776-14.692,3.139c-0.262,0.095-0.398,0.386-0.302,0.648C438.612,264.033,438.818,264.162,439.034,264.151
					z"/>
			</g>
		</g>
	</g>
</g>
</svg>
